<svg xmlns="http://www.w3.org/2000/svg" viewBox="0 0 900 1260" role="img" aria-labelledby="title desc">
  <title id="title">Diariamente — Bem-estar no Trabalho</title>
  <desc id="desc">Arte editorial do curso Diariamente, com uma mulher em momento de autocuidado no ambiente de trabalho.</desc>
  <defs>
    <linearGradient id="bg" x1="0" y1="0" x2="1" y2="1"><stop offset="0" stop-color="#fff7e8"/><stop offset=".56" stop-color="#f6ead8"/><stop offset="1" stop-color="#edf5ee"/></linearGradient>
    <linearGradient id="desk" x1="0" y1="0" x2="1" y2="0"><stop stop-color="#d7a574"/><stop offset="1" stop-color="#b57f50"/></linearGradient>
    <linearGradient id="shirt" x1="0" y1="0" x2="1" y2="1"><stop stop-color="#edc9a4"/><stop offset="1" stop-color="#d3a06d"/></linearGradient>
    <radialGradient id="glow"><stop offset="0" stop-color="#ffd77b" stop-opacity=".65"/><stop offset="1" stop-color="#ffd77b" stop-opacity="0"/></radialGradient>
    <filter id="shadow" x="-30%" y="-30%" width="160%" height="160%"><feDropShadow dx="0" dy="18" stdDeviation="20" flood-color="#3d2542" flood-opacity=".16"/></filter>
  </defs>
  <rect width="900" height="1260" rx="36" fill="#f8f2eb"/>
  <rect x="24" y="24" width="852" height="1212" rx="38" fill="#161616" filter="url(#shadow)"/>
  <rect x="42" y="42" width="816" height="1176" rx="28" fill="url(#bg)"/>
  <circle cx="90" cy="180" r="240" fill="url(#glow)"/>
  <g transform="translate(450 104)" fill="#0a625d">
    <circle cx="-104" cy="0" r="29" fill="none" stroke="#0a625d" stroke-width="3"/>
    <path d="M-123 2c18-24 48-8 34 12-12 17-38 8-34-11 4-17 28-19 33-4" fill="none" stroke="#0a625d" stroke-width="3" stroke-linecap="round"/>
    <text x="25" y="-2" text-anchor="middle" font-family="Georgia,serif" font-size="38">Alma</text>
    <text x="25" y="34" text-anchor="middle" font-family="Georgia,serif" font-size="38">Cuidada</text>
    <text x="0" y="66" text-anchor="middle" font-family="Arial,sans-serif" font-size="12" font-weight="700" letter-spacing="1.3">CUIDAR DA MENTE É TRANSFORMAR A VIDA</text>
  </g>
  <line x1="185" y1="210" x2="336" y2="210" stroke="#0a625d" stroke-width="2" opacity=".6"/>
  <line x1="564" y1="210" x2="715" y2="210" stroke="#0a625d" stroke-width="2" opacity=".6"/>
  <rect x="350" y="187" width="200" height="46" rx="23" fill="#fff9eb" stroke="#0a625d" stroke-width="2"/>
  <text x="450" y="218" text-anchor="middle" font-family="Arial,sans-serif" font-size="21" font-weight="800" letter-spacing="6" fill="#0a625d">CURSO</text>
  <text x="450" y="320" text-anchor="middle" font-family="Arial,sans-serif" font-size="86" font-weight="900" letter-spacing="-2" fill="#075c59">DIARIAMENTE</text>
  <text x="450" y="385" text-anchor="middle" font-family="Georgia,serif" font-style="italic" font-size="51" fill="#a56b13">Bem-estar no Trabalho ♡</text>
  <rect x="205" y="420" width="490" height="58" rx="29" fill="#075c59"/>
  <text x="450" y="458" text-anchor="middle" font-family="Arial,sans-serif" font-size="23" font-weight="800" letter-spacing=".8" fill="#fffdf8">✦  PRATICANDO TERAPIA TODO DIA</text>
  <g transform="translate(110 540)" fill="#174e4b" font-family="Arial,sans-serif">
    <text font-size="19" font-weight="700"><tspan x="0" dy="0">Pequenas escolhas</tspan><tspan x="0" dy="25">diárias constroem</tspan><tspan x="0" dy="25">uma mente forte e</tspan><tspan x="0" dy="25">uma vida leve.</tspan></text>
    <path d="M0 125c23 20 45 17 58-5 13-24 42-17 40 7-2 25-37 32-63 16" fill="none" stroke="#c6902c" stroke-width="2.5" stroke-linecap="round"/>
    <g transform="translate(0 175)" font-size="14" font-weight="800">
      <circle cx="13" cy="10" r="10" fill="none" stroke="#0a6b64" stroke-width="2.5"/><text x="34" y="15">MENTE SAUDÁVEL</text>
      <path d="M5 56c12-15 28 0 20 11L14 78 4 68c-8-10-3-17 1-12Z" fill="none" stroke="#0a6b64" stroke-width="2.5"/><text x="34" y="71">EMOÇÕES EQUILIBRADAS</text>
      <circle cx="13" cy="118" r="11" fill="none" stroke="#0a6b64" stroke-width="2.5"/><circle cx="13" cy="118" r="5" fill="none" stroke="#0a6b64" stroke-width="2"/><path d="M13 118l15-14" stroke="#0a6b64" stroke-width="2.5"/><text x="34" y="123">FOCO E PRODUTIVIDADE</text>
      <path d="M13 166v24M13 171c-21-4-24-24-5-26 4 13 5 18 5 26Zm0 7c23-5 25-24 6-25-4 12-5 17-6 25Z" fill="none" stroke="#0a6b64" stroke-width="2.5"/><text x="34" y="181">PROPÓSITO E REALIZAÇÃO</text>
    </g>
  </g>
  <g transform="translate(454 730)">
    <ellipse cx="0" cy="-98" rx="78" ry="92" fill="#34211b"/>
    <circle cx="0" cy="-68" r="68" fill="#efc39e"/>
    <path d="M-67-98c20-78 119-82 138-3-36-18-79-19-138 3Z" fill="#34211b"/>
    <path d="M-28-72q14 9 28 0M2-72q14 9 28 0" fill="none" stroke="#5c4034" stroke-width="4" stroke-linecap="round"/>
    <path d="M-15-38c12 9 25 9 37 0" fill="none" stroke="#b66d5d" stroke-width="3.5" stroke-linecap="round"/>
    <path d="M-102 18Q0-40 102 18l42 228h-288Z" fill="url(#shirt)"/>
    <path d="M-91 40c-37 62-53 136-48 208M91 40c37 62 53 136 48 208" fill="none" stroke="#d29b6d" stroke-width="20" stroke-linecap="round"/>
    <path d="M-60 80c28 36 47 54 60 65 13-11 32-29 60-65" fill="none" stroke="#efc39e" stroke-width="28" stroke-linecap="round"/>
    <path d="M-7 142c-33-14-54-43-63-72M7 142c33-14 54-43 63-72" fill="none" stroke="#efc39e" stroke-width="21" stroke-linecap="round"/>
    <path d="M-26-155c19-34 53-34 58-6" fill="none" stroke="#34211b" stroke-width="27" stroke-linecap="round"/>
  </g>
  <g transform="translate(710 640)">
    <path d="M55-3c30 22 48 58 48 100 0 65-46 117-103 117S-103 162-103 97c0-42 18-78 48-100 11-8 18-21 18-36h74c0 15 7 28 18 36Z" fill="#075c59" stroke="#d7a53c" stroke-width="3"/>
    <circle cx="0" cy="28" r="28" fill="none" stroke="#d7a53c" stroke-width="3"/>
    <path d="M-12 28c7-16 25-14 25 2-1 14-16 22-26 11 8 0 12-6 13-13-6 4-10 3-12 0Z" fill="none" stroke="#d7a53c" stroke-width="2.4"/>
    <g text-anchor="middle" font-family="Georgia,serif" font-style="italic" font-size="20" fill="#fffdf7"><text y="78">Cuide da sua mente,</text><text y="105">transforme seu dia,</text><text y="132">mude sua vida.</text></g>
  </g>
  <rect x="42" y="1005" width="816" height="118" fill="url(#desk)"/>
  <g transform="translate(75 960)"><rect x="0" y="90" width="145" height="16" rx="8" fill="#2f3335"/><rect x="9" y="0" width="126" height="92" rx="9" fill="#596168"/><rect x="19" y="12" width="106" height="66" rx="5" fill="#dbe6e5"/></g>
  <g transform="translate(245 998)"><rect width="92" height="90" rx="14" fill="#f4e6d3" stroke="#927052" stroke-width="2"/><path d="M92 27c32 0 32 40 0 40" fill="none" stroke="#927052" stroke-width="8"/><path d="M46 22c14-17 27 0 18 11L46 52 28 33c-9-11 4-28 18-11Z" fill="none" stroke="#075c59" stroke-width="2.5"/><text x="46" y="70" text-anchor="middle" font-family="Arial,sans-serif" font-size="8.5" font-weight="800" fill="#075c59">ESCOLHAS QUE CURAM</text></g>
  <g transform="translate(500 1045)"><rect width="205" height="14" rx="7" fill="#eee3d4"/><path d="M18 7h170" stroke="#80644e" stroke-width="1.5"/><rect x="78" y="-15" width="110" height="6" rx="3" fill="#29383a"/></g>
  <g transform="translate(750 950)"><rect x="0" y="95" width="64" height="78" rx="9" fill="#836650"/><path d="M32 93V2M32 22C8 13 8-10 28-13c5 18 5 27 4 35Zm1 16c24-7 35-29 18-39-12 14-17 27-18 39Zm0 23c-23 0-38-18-27-32 17 9 24 20 27 32Z" fill="none" stroke="#557e60" stroke-width="6" stroke-linecap="round"/></g>
  <rect x="42" y="1123" width="816" height="95" rx="0 0 28 28" fill="#075c59"/>
  <g fill="#d7a53c" font-family="Arial,sans-serif" font-size="14" font-weight="800" text-anchor="middle">
    <text x="150" y="1178">✦ AUTOCONHECIMENTO</text>
    <text x="360" y="1178">◌ AUTOCUIDADO</text>
    <text x="560" y="1178">◎ SAÚDE MENTAL</text>
    <text x="748" y="1178">☼ BEM-ESTAR</text>
  </g>
</svg>